pedal_clip_forces_x_-0.09_y_-0.05.mot
version=1
nRows=188
nColumns=4
inDegrees=yes
endheader
time	PedalClip_calcn_r_Fx	PedalClip_calcn_r_Fy	PedalClip_calcn_r_Fz
0.85524903	-9.16724330534191	28.8740043357016	0
0.85529797	-9.28382813151262	28.9612455625779	0
0.85543303	-9.40082270447189	29.0491554746167	0
0.85578627	-9.51823281893888	29.1377154205353	0
0.85592267	-9.63606126419138	29.2268777198272	0
0.85617587	-9.75430322895536	29.3166117204868	0
0.85653936	-9.87295480835189	29.4069344207019	0
0.85658953	-9.99201461680645	29.4978943829405	0
0.8567227	-10.1114840179551	29.5895345673543	0
0.85707854	-10.231366573076	29.6818370739766	0
0.85721944	-10.3516633782641	29.7747530075975	0
0.85747467	-10.4723682404057	29.8682491099204	0
0.85783219	-10.5934747491626	29.9623391344118	0
0.85788358	-10.7149783679487	30.0570693537258	0
0.85801486	-10.8368775203387	30.152482505084	0
0.85837299	-10.9591735598765	30.248561050816	0
0.85851699	-11.0818667725122	30.3452546453739	0
0.85877571	-11.2049514656188	30.4425275482061	0
0.85912847	-11.3284209284317	30.5403904738437	0
0.8591805	-11.452269354841	30.6388861918753	0
0.85931035	-11.5764939533975	30.7380562652556	0
0.85966864	-11.701098009365	30.837885220404	0
0.85980977	-11.8260878598137	30.9383254499651	0
0.86006698	-11.9514640090177	31.0393425215185	0
0.86041694	-12.0772210749182	31.1409455661566	0
0.86046893	-12.2033498711201	31.2431730619664	0
0.86059802	-12.3298415867155	31.3460639467079	0
0.86095452	-12.4566955508297	31.4496024102362	0
0.86109306	-12.5839166007515	31.553740404196	0
0.86134828	-12.7115034178364	31.6584415576483	0
0.86169598	-12.8394452687236	31.7637112793523	0
0.86174771	-12.9677249583343	31.8695838221671	0
0.8618762	-13.0963233253353	31.9760933000387	0
0.86223009	-13.2252244458464	32.0832155644996	0
0.86236629	-13.3544138703637	32.1908904276455	0
0.86261941	-13.4838731413082	32.2990700912618	0
0.86296531	-13.6135822513815	32.4077511988764	0
0.86301654	-13.7435213515688	32.5169583136358	0
0.86314462	-13.8736721827539	32.6267194527569	0
0.86349483	-14.0040217938956	32.7370121466062	0
0.86362891	-14.1345621638724	32.8477828596106	0
0.86387968	-14.265281654934	32.9589894819586	0
0.86422425	-14.3961689798789	33.0706358239332	0
0.86427471	-14.5272130337157	33.1827568222813	0
0.86440255	-14.6583990568487	33.2953846343014	0
0.86474772	-14.7897009204408	33.4084877042118	0
0.86487984	-14.9210855128494	33.5219943092507	0
0.86512782	-15.0525198635875	33.6358467576037	0
0.86547151	-15.1839883101485	33.750042461296	0
0.86552088	-15.3154880236032	33.864611575821	0
0.8656487	-15.4470174687144	33.9795839772315	0
0.86598707	-15.5785628219506	34.0949335394913	0
0.8661174	-15.7101064462167	34.21060078829	0
0.86636195	-15.8416323590225	34.3265418802773	0
0.86670514	-15.9731449672917	34.4427719013608	0
0.86675308	-16.1046615623632	34.5593395774046	0
0.86688108	-16.2361961456439	34.6762886229312	0
0.86721056	-16.3677380288182	34.7935976739476	0
0.86733951	-16.4992633263008	34.9112043197939	0
0.86757982	-16.6307509529985	35.0290625270475	0
0.86792271	-16.7622078535735	35.1471916412786	0
0.8679689	-16.8936599217859	35.2656440308035	0
0.86809727	-17.0251344328095	35.3844688306549	0
0.86841558	-17.1566409352619	35.5036607526308	0
0.86853895	-17.2881793806256	35.6231780326066	0
0.86877226	-17.419747063774	35.7429915483609	0
0.86911818	-17.5513613788505	35.8631358046163	0
0.86915977	-17.6830541066211	35.9836754572245	0
0.86929052	-17.8148566283239	36.1046688329575	0
0.86957959	-17.9467805758667	36.2261136472198	0
0.86967902	-18.0788246916808	36.3479648831578	0
0.86990067	-18.2109824696768	36.4701880420127	0
0.87024301	-18.3432580930005	36.5927959885946	0
0.87028397	-18.4756691865252	36.7157902247565	0
0.87041394	-18.6082326386859	36.8391503362019	0
0.87069454	-18.740984909964	36.9628423910447	0
0.87078675	-18.8739719186499	37.0868673054254	0
0.87100681	-19.0072330668176	37.2112884456739	0
0.8713407	-19.1407868176223	37.3362205652792	0
0.87138614	-19.2746248307275	37.4617544389085	0
0.87151216	-19.4087337296147	37.5879379431557	0
0.8718172	-19.5431182050017	37.714782279621	0
0.87193153	-19.6778054983754	37.8423035456007	0
0.87215679	-19.8128257194792	37.9705576851466	0
0.87252101	-19.9481884663283	38.0996474226715	0
0.87255744	-20.0838845629409	38.2296496297127	0
0.87268804	-20.2199106407364	38.3606033850073	0
0.87293899	-20.3562881333778	38.4925092032945	0
0.87302095	-20.4930612131793	38.6253260233399	0
0.87324353	-20.6302606167012	38.7590208712115	0
0.87354939	-20.7679046496968	38.8936183417585	0
0.87360536	-20.9060140006868	39.0291520774181	0
0.87372215	-21.0446429269813	39.1656617563597	0
0.8740737	-21.1838727224256	39.3031844022257	0
0.87420166	-21.3237799237849	39.4417555782388	0
0.87444172	-21.4644189479775	39.5814220103341	0
0.87481523	-21.6058132399821	39.7222612215126	0
0.87485258	-21.7479808837517	39.8643430995432	0
0.87498101	-21.8909483602103	40.0077074214967	0
0.87523293	-22.0347503692231	40.1523565360447	0
0.87531284	-22.1794091065246	40.2982652715213	0
0.87553153	-22.3249223080818	40.4454259556387	0
0.87583869	-22.4712592125216	40.593872821098	0
0.87589278	-22.6183904643166	40.7436431331565	0
0.87600988	-22.7663043468822	40.8947501656952	0
0.87635274	-22.91500475535	41.0471656014196	0
0.87647754	-23.064482652863	41.2008185363002	0
0.87671556	-23.2146783782457	41.3556024747521	0
0.87714001	-23.3654865967302	41.5114113407944	0
0.87718245	-23.5167919224554	41.6681092470376	0
0.87729941	-23.6685157913724	41.8255298812059	0
0.87753483	-23.8205930689795	41.9835020772488	0
0.87762376	-23.9730119283983	42.1419267717671	0
0.87783455	-24.1257953329639	42.3007980010262	0
0.87812292	-24.2789394882563	42.4601493725703	0
0.87817932	-24.4324367552746	42.6199966328308	0
0.8782917	-24.58630041253	42.7803276551934	0
0.87863324	-24.7405795133848	42.9411070922201	0
0.87875949	-24.8953682908018	43.1023205120826	0
0.87899357	-25.0508085754213	43.2640520244226	0
0.87940867	-25.2070441845098	43.4264790769421	0
0.87974333	-25.3642115186021	43.5898088022873	0
0.87993012	-25.5224211014383	43.7542215699583	0
0.88023917	-25.6817637988137	43.9198280748499	0
0.88051021	-25.8423283973893	44.0866672067218	0
0.88055048	-26.0041748046858	44.2547454320747	0
0.88066012	-26.1673126558983	44.424091241475	0
0.88085974	-26.3317318718325	44.5947725679506	0
0.88094942	-26.4974365111064	44.7668737450687	0
0.88116448	-26.6644625693487	44.9404758044752	0
0.88143837	-26.832851840964	45.1156258640501	0
0.8814911	-27.0026289339105	45.2923563046951	0
0.88159997	-27.1737874559296	45.4707262828118	0
0.88189117	-27.3463226611904	45.6508061977188	0
0.88198958	-27.5202540264411	45.8326731709881	0
0.88219955	-27.6956280855856	46.016404090619	0
0.88257271	-27.8724826601125	46.2020527958287	0
0.88264877	-28.050815392583	46.3896554391853	0
0.88281133	-28.2305693595009	46.5792600569628	0
0.88307121	-28.4116842437558	46.7709098129882	0
0.88333168	-28.5941433870716	46.9646492499105	0
0.8833822	-28.7780167165784	47.1605625034701	0
0.88348767	-28.9634555797486	47.3587402090193	0
0.8837346	-29.1506336958974	47.5592791987459	0
0.8838148	-29.3396488195174	47.7622773709892	0
0.88401809	-29.5305117144634	47.9677661841952	0
0.88431199	-29.7231739035615	48.175724573755	0
0.88436303	-29.9175790147362	48.3861431811668	0
0.88447657	-30.1137689035229	48.599054356907	0
0.88479365	-30.3118409554681	48.814523902791	0
0.88491056	-30.5118536144372	49.0326296767208	0
0.88513957	-30.7136946272004	49.2533453334093	0
0.88544092	-30.9171345787417	49.4765593499341	0
0.88564096	-31.1219168830864	49.7021399174323	0
0.8860064	-31.3278912246996	49.9300267821939	0
0.886495	-31.5349898492811	50.1602315994546	0
0.88661235	-31.7431994157784	50.3928223555012	0
0.88702145	-31.9525101174806	50.6278534303562	0
0.88743327	-32.1628580732062	50.865303990793	0
0.8875057	-32.3740729470932	51.1050267374882	0
0.8877453	-32.5859128059077	51.3467603911925	0
0.8879849	-32.7981216947769	51.5901895790613	0
0.88827758	-33.0104910058641	51.8349990740239	0
0.88845843	-33.2228340618162	52.0808476858225	0
0.88867713	-33.4349370569889	52.3273098078484	0
0.88897553	-33.6465637663869	52.5738965986588	0
0.88917154	-33.8575394357273	52.8201609458579	0
0.88952956	-34.067807084991	53.0657872766686	0
0.88999004	-34.2774569467178	53.3106288648822	0
0.89056029	-34.4866516836818	53.5546762483357	0
0.89061731	-34.6955664220009	53.7980223470602	0
0.89070925	-34.9043339890875	54.0408210458628	0
0.89095493	-35.1129970913279	54.2832147998711	0
0.89103254	-35.3215252079551	54.525263828197	0
0.89122705	-35.5297545510967	54.7668905872418	0
0.89158646	-35.7374689829524	55.0079226555855	0
0.8916224	-35.944469804765	55.2482175969384	0
0.89172138	-36.1506232972448	55.4877268377935	0
0.89190283	-36.355808468895	55.7264271769655	0
0.89202914	-36.5597995056205	55.9642466705212	0
0.89216559	-36.7622060080516	56.2010238225736	0
0.89247854	-36.9625597875455	56.4365156988378	0
0.89267798	-37.1605290036552	56.6705487302988	0
0.89289986	-37.3561143598782	56.9031154832634	0
0.89309574	-37.5497038742068	57.1343778990442	0
0.89334755	-37.7418821301995	57.364582657434	0
0.89354112	-37.9332606566133	57.5940061114425	0
0.89389624	-38.1243836137378	57.8229213922458	0
